<svg xmlns="http://www.w3.org/2000/svg" width="40" height="40" viewBox="0 0 40 40">
    <defs>
        <style>
            .cls-1{fill:#e5231b}
        </style>
    </defs>
    <path id="cancel-2" d="M20 0a19.951 19.951 0 1 0 14.157 5.843A20 20 0 0 0 20 0zm2.91 20.364l6.807 6.807a.878.878 0 0 1 0 1.272l-1.272 1.272a.981.981 0 0 1-.636.272.826.826 0 0 1-.636-.272l-6.807-6.807a.439.439 0 0 0-.636 0l-6.807 6.807a.981.981 0 0 1-.636.272.826.826 0 0 1-.636-.272l-1.272-1.272a.878.878 0 0 1 0-1.272l6.807-6.807a.439.439 0 0 0 0-.636l-6.807-6.807a.878.878 0 0 1 0-1.272l1.272-1.272a.878.878 0 0 1 1.272 0l6.807 6.807a.439.439 0 0 0 .636 0l6.807-6.807a.981.981 0 0 1 .636-.272.826.826 0 0 1 .636.272l1.272 1.272a.878.878 0 0 1 0 1.272l-6.807 6.807c-.183.091-.183.457 0 .636z" class="cls-1"/>
</svg>
