<svg xmlns="http://www.w3.org/2000/svg" width="23.02" height="21.25" viewBox="0 0 23.02 21.25">
    <defs>
        <style>
            .cls-1{fill:#7f28c4}
        </style>
    </defs>
    <g id="printing-tool" transform="translate(0 -18.271)">
        <path id="Path_277" d="M22.239 27.907a2.557 2.557 0 0 0-1.875-.782h-.885v-3.542a3.69 3.69 0 0 0-.941-2.269l-2.1-2.1a3.682 3.682 0 0 0-2.269-.941H4.87A1.322 1.322 0 0 0 3.542 19.6v7.526h-.886a2.557 2.557 0 0 0-1.875.782A2.557 2.557 0 0 0 0 29.781v5.755a.426.426 0 0 0 .131.311.426.426 0 0 0 .311.131h3.1v2.213a1.323 1.323 0 0 0 1.328 1.33h13.281a1.323 1.323 0 0 0 1.328-1.328v-2.214h3.1a.448.448 0 0 0 .442-.443v-5.755a2.556 2.556 0 0 0-.782-1.874zm-4.531 9.843H5.313v-3.542h12.4zm0-8.854H5.313v-8.854h8.854v2.213a1.322 1.322 0 0 0 1.328 1.328h2.213V28.9zm3.279 1.504a.868.868 0 1 1 .263-.623.851.851 0 0 1-.263.623z" class="cls-1" data-name="Path 277"/>
    </g>
</svg>
