<svg xmlns="http://www.w3.org/2000/svg" width="241.02" height="45.884" viewBox="0 0 241.02 45.884">
    <g>
        <path fill="red" d="M18.965 34.262l-6.711 15.075h-4.9l7.373-16.12c-3.467-1.761-5.778-4.951-5.778-10.838C8.952 14.126 14.179 10 20.4 10h6.327v39.337h-4.241V34.262h-3.521m3.521-20.686h-2.255c-3.411 0-6.711 2.256-6.711 8.8 0 6.326 3.025 8.362 6.711 8.362h2.256z" transform="translate(-7.357 -10)"/>
        <path d="M76.475 34.846v27.728h-4.237V50.141h-6.382v12.433h-4.291V34.846h4.291v11.772h6.382V34.846h4.236m22.062 33.175h-3.851v-5.447H82.8v5.447h-3.849v-8.968h1.705c2.53-5.887 2.805-14.469 2.805-21.842v-2.365h12.875v24.207h2.2zM92.1 38.312h-4.787v.5c0 5.831-.275 14.358-2.586 20.245H92.1zm18.265 24.647c-5.722 0-9.242-4.565-9.242-13.092 0-8.914 2.476-15.405 8.362-15.405 4.621 0 7.647 3.466 7.647 12.873V49.7h-11.554c0 6.272 1.761 9.573 5.172 9.573a9.617 9.617 0 0 0 5.45-1.873l.991 3.3a10.915 10.915 0 0 1-6.826 2.259zm-4.732-16.78h7.1c0-4.732-.77-8.2-3.246-8.2-2.644.003-3.579 3.248-3.854 8.2zm20.191 2.585v13.81h-4.292V34.846h4.292v12.818l6.657-12.819h4.347l-6.878 13.04 7.867 14.689h-4.676zm12.543-.054c0-8.693 3.357-14.249 9.849-14.249a8.732 8.732 0 0 1 5.116 1.43l-.605 4.072a7.34 7.34 0 0 0-4.566-1.926c-3.081 0-5.281 3.466-5.281 10.453 0 6.932 1.65 10.894 5.116 10.894a7.009 7.009 0 0 0 4.676-1.706l.99 3.19a8.4 8.4 0 0 1-5.777 2.09c-5.941.001-9.518-4.785-9.518-14.248z" transform="translate(-7.357 -10) translate(-29.335 -13.237)"/>
        <path d="M303.044 49.337h-16.835l-.386 6.547h-2.145v-8.8h1.155c1.926-1.6 2.86-6 3.411-11.609.55-5.831.715-14.525.881-25.473h13.754v37.08h2.7v8.8h-2.147l-.384-6.547m-2.916-37.081H291.6c-.166 9.958-.441 17.55-.881 23.217-.5 5.886-1.376 9.792-2.86 11.609h12.268z" transform="translate(-7.357 -10) translate(-149.535)"/>
        <path d="M346.043 60.673a7.068 7.068 0 0 0 5.611-2.97l.826 2.089a8.009 8.009 0 0 1-6.491 3.136c-5.886 0-8.583-5.337-8.583-14.413s3.41-14.415 8.088-14.415c4.786 0 7.866 5.007 6.986 14.856h-12.543c.11 7.591 2.09 11.717 6.106 11.717m-6.052-13.755h10.07c.439-7.371-1.761-10.672-4.567-10.672-2.916 0-5.283 3.741-5.503 10.672z" transform="translate(-7.357 -10) translate(-178.61 -13.042)"/>
        <path d="M392.988 49.659h-9.463v13.368h-2.585V35.3h2.585v12.267h9.463V35.3h2.585v27.727h-2.585V49.659" transform="translate(-7.357 -10) translate(-202.169 -13.691)"/>
        <path d="M426.155 35.3h2.584v10.287h2.038c5.281 0 8.692 2.861 8.692 8.638 0 5.886-3.631 8.8-8.858 8.8h-4.455V35.3m2.584 12.324v13.368h1.651c3.906 0 6.547-1.924 6.547-6.711 0-4.676-2.31-6.657-6.272-6.657z" transform="translate(-7.357 -10) translate(-226.638 -13.691)"/>
        <path d="M467.42 37.445v25.582h-2.53V35.3h11.718v2.146h-9.188" transform="translate(-7.357 -10) translate(-247.6 -13.691)"/>
        <path d="M512.325 43.717a37.649 37.649 0 0 1 .22-3.8h-.166a24.6 24.6 0 0 1-1.485 3.576l-9.022 19.531h-2.2V35.3h2.421v19.255c0 1.485-.112 2.7-.22 3.906h.164a30.235 30.235 0 0 1 1.485-3.685l9.024-19.476h2.254v27.727h-2.475v-19.31" transform="translate(-7.357 -10) translate(-266.423 -13.691)"/>
    </g>
</svg>
